<svg xmlns="http://www.w3.org/2000/svg" viewBox="0 0 32 32" width="32" height="32">
  <defs>
    <linearGradient id="infinityGradient" x1="0%" y1="0%" x2="100%" y2="0%">
      <stop offset="0%" style="stop-color:#3b82f6;stop-opacity:1" />
      <stop offset="50%" style="stop-color:#8b5cf6;stop-opacity:1" />
      <stop offset="100%" style="stop-color:#06b6d4;stop-opacity:1" />
    </linearGradient>
  </defs>
  <rect width="32" height="32" fill="#ffffff" rx="6"/>
  <path d="M6 16c0-2.21 1.79-4 4-4 1.38 0 2.59.7 3.32 1.76L16 16l2.68-2.24C19.41 12.7 20.62 12 22 12c2.21 0 4 1.79 4 4s-1.79 4-4 4c-1.38 0-2.59-.7-3.32-1.76L16 16l-2.68 2.24C12.59 19.3 11.38 20 10 20c-2.21 0-4-1.79-4-4zm4-2c-1.1 0-2 .9-2 2s.9 2 2 2 2-.9 2-2-.9-2-2-2zm12 0c-1.1 0-2 .9-2 2s.9 2 2 2 2-.9 2-2-.9-2-2-2z" fill="url(#infinityGradient)" stroke="none"/>
</svg>