<svg xmlns="http://www.w3.org/2000/svg" viewBox="0 0 32 32" width="32" height="32">
  <defs>
    <linearGradient id="infinityGradient" x1="0%" y1="0%" x2="100%" y2="0%">
      <stop offset="0%" style="stop-color:#3b82f6;stop-opacity:1" />
      <stop offset="50%" style="stop-color:#8b5cf6;stop-opacity:1" />
      <stop offset="100%" style="stop-color:#06b6d4;stop-opacity:1" />
    </linearGradient>
  </defs>
  <rect width="32" height="32" fill="#ffffff" rx="6"/>
  <path d="M5 16c0-3.31 2.69-6 6-6 1.66 0 3.16.67 4.24 1.76C16.33 12.84 17 14.34 17 16c0 1.66-.67 3.16-1.76 4.24C14.16 21.33 12.66 22 11 22c-3.31 0-6-2.69-6-6zm16 0c0-3.31 2.69-6 6-6s6 2.69 6 6-2.69 6-6 6-6-2.69-6-6zm-8-3c-1.66 0-3 1.34-3 3s1.34 3 3 3 3-1.34 3-3-1.34-3-3-3zm10 0c-1.66 0-3 1.34-3 3s1.34 3 3 3 3-1.34 3-3-1.34-3-3-3z" fill="url(#infinityGradient)" stroke="none"/>
</svg>